
        <svg xmlns="http://www.w3.org/2000/svg" xmlns:xlink="http://www.w3.org/1999/xlink" version="1.1" width="3300" 
        height="2353.636420856823" viewBox="0 0 3300 2353.636420856823">
			
			<g transform="scale(14.999999999999998) translate(10, 10)">
				<defs id="SvgjsDefs2920"><linearGradient id="SvgjsLinearGradient2923"><stop id="SvgjsStop2924" stop-color="#51504f" offset="0"></stop><stop id="SvgjsStop2925" stop-color="#939598" offset="0.5"></stop><stop id="SvgjsStop2926" stop-color="#51504f" offset="1"></stop></linearGradient></defs><g id="SvgjsG2921" featureKey="nameFeature-0" transform="matrix(4.545454545454546,0,0,4.545454545454546,-0.5454540252685547,-45.454536784778945)" fill="url(#SvgjsLinearGradient2923)"><path d="M0.16 10.04 l10.64 0 l16.48 18.44 l0.12 11.52 z M4.2 30.32 c0.48 1.2533 1.0667 2.4667 1.76 3.64 c0.61332 1.0133 1.36 2.0733 2.24 3.18 s1.92 2.06 3.12 2.86 l-7.12 0 l-4.08 0 c0.88 -0.69332 1.5867 -1.5866 2.12 -2.68 s0.94664 -2.16 1.24 -3.2 c0.32 -1.2267 0.56 -2.4934 0.72 -3.8 z M26.96 17.48 c-0.26668 -0.8 -0.65332 -1.64 -1.16 -2.52 c-0.45332 -0.74668 -1.0533 -1.56 -1.8 -2.44 s-1.72 -1.72 -2.92 -2.52 l6.28 0 l3.16 0 c-0.74668 0.82668 -1.3467 1.68 -1.8 2.56 s-0.81332 1.68 -1.08 2.4 c-0.29332 0.88 -0.52 1.72 -0.68 2.52 z M44.120000000000005 40.12 l-7.12 0 l0 -30 l7.12 0 l0 30 l0 0 z"></path></g>
			</g>
		</svg>
	